<svg width="374" height="351" viewBox="0 0 374 351" fill="none" xmlns="http://www.w3.org/2000/svg">
<g id="undraw_Traveling_re_weve " clip-path="url(#clip0)">
<path id="Vector" d="M303.567 140.846C283.755 125.472 252.729 110.938 218.445 100.971C187.229 91.896 156.784 87.5219 132.712 88.6539L132.585 85.7453C156.944 84.6003 187.705 89.0111 219.2 98.1672C253.804 108.227 285.166 122.932 305.244 138.513L303.567 140.846Z" fill="#3F3D56"/>
<path id="Vector_2" d="M301.517 152.696C301.541 166.326 298.797 179.807 293.465 192.259C293.02 193.302 292.556 194.335 292.074 195.358C282.799 215.121 267.352 231.035 248.254 240.504C229.156 249.974 207.533 252.44 186.912 247.501C166.291 242.562 147.889 230.509 134.707 213.308C121.525 196.106 114.342 174.772 114.329 152.784C114.328 150.534 114.4 148.301 114.547 146.085C114.616 144.958 114.706 143.838 114.817 142.725C117.287 117.937 128.821 95.0815 147.039 78.8735C165.256 62.6656 188.767 54.3425 212.719 55.6218C236.672 56.901 259.238 67.685 275.761 85.7484C292.284 103.812 301.504 127.776 301.517 152.696L301.517 152.696Z" fill="#F2F2F2"/>
<path id="Vector_3" opacity="0.1" d="M293.465 192.259C293.02 193.302 292.556 194.335 292.074 195.358C289.339 195.668 286.46 195.893 283.438 196.035C280.935 196.152 278.36 196.212 275.729 196.213C252.745 196.224 225.082 191.829 196.821 183.614C165.325 174.457 136.829 161.642 116.579 147.528C115.889 147.048 115.212 146.567 114.547 146.085C114.616 144.958 114.706 143.838 114.817 142.725C115.891 143.519 116.998 144.314 118.139 145.111C138.15 159.056 166.361 171.735 197.576 180.81C225.591 188.955 252.993 193.312 275.713 193.302C278.311 193.3 280.843 193.242 283.31 193.126C286.903 192.956 290.288 192.667 293.465 192.259Z" fill="black"/>
<path id="Vector_4" d="M275.728 193.884C252.745 193.896 225.081 189.5 196.82 181.285C165.325 172.129 136.828 159.313 116.578 145.199C95.9048 130.79 86.2075 116.588 89.2717 105.207C92.3357 93.8266 107.718 86.9149 132.585 85.7453L132.712 88.6539C121.099 89.2001 111.636 90.998 104.585 93.9976C97.5518 96.9899 93.3074 101.025 91.9702 105.992C90.633 110.958 92.2459 116.696 96.7639 123.047C101.293 129.413 108.485 136.052 118.139 142.781C138.148 156.727 166.359 169.406 197.575 178.481C225.591 186.625 252.991 190.984 275.713 190.973C278.309 190.972 280.841 190.914 283.308 190.798C294.921 190.251 304.384 188.454 311.435 185.454C318.469 182.462 322.713 178.427 324.05 173.46C326.451 164.542 319.177 152.96 303.567 140.846L305.244 138.513C313.277 144.747 319.224 150.892 322.92 156.779C326.882 163.089 328.17 168.966 326.749 174.245C323.685 185.625 308.302 192.536 283.435 193.706C280.933 193.824 278.359 193.883 275.728 193.884Z" fill="#3F3D56"/>
<path id="Vector_5" d="M210.344 37.9539C210.937 37.9536 211.417 37.4544 211.416 36.839C211.416 36.2235 210.936 35.7248 210.343 35.7251C209.751 35.7254 209.271 36.2245 209.271 36.84C209.272 37.4554 209.752 37.9541 210.344 37.9539Z" fill="#F2F2F2"/>
<path id="Vector_6" d="M68.0827 86.3764C69.1017 86.3759 69.9274 85.5172 69.9269 84.4584C69.9264 83.3997 69.0999 82.5418 68.0809 82.5422C67.0619 82.5427 66.2362 83.4014 66.2367 84.4602C66.2372 85.5189 67.0637 86.3769 68.0827 86.3764Z" fill="#CCCCCC"/>
<path id="Vector_7" d="M64.1865 163.281C66.1995 163.28 67.8306 161.584 67.8296 159.492C67.8286 157.401 66.196 155.706 64.1829 155.707C62.1699 155.708 60.5389 157.404 60.5398 159.496C60.5408 161.587 62.1735 163.282 64.1865 163.281Z" fill="#CCCCCC"/>
<path id="Vector_8" d="M282.92 46.0154C284.262 46.0147 285.349 44.8842 285.348 43.4902C285.348 42.0962 284.26 40.9667 282.918 40.9673C281.576 40.9679 280.489 42.0985 280.49 43.4925C280.491 44.8865 281.579 46.016 282.92 46.0154Z" fill="#CCCCCC"/>
<path id="Vector_9" d="M369.128 152.305C371.306 152.304 373.071 150.468 373.07 148.205C373.069 145.942 371.302 144.108 369.124 144.109C366.946 144.11 365.181 145.945 365.182 148.209C365.183 150.472 366.95 152.306 369.128 152.305Z" fill="#CCCCCC"/>
<path id="Vector_10" d="M338.255 84.527C339.189 84.5266 339.947 83.739 339.946 82.768C339.946 81.7969 339.188 81.0101 338.253 81.0105C337.318 81.011 336.561 81.7985 336.562 82.7696C336.562 83.7406 337.32 84.5275 338.255 84.527Z" fill="#CCCCCC"/>
<path id="Vector_11" d="M132.779 63.0204C134.237 63.0197 135.418 61.7911 135.418 60.2762C135.417 58.7614 134.234 57.5339 132.776 57.5346C131.318 57.5352 130.137 58.7638 130.138 60.2787C130.138 61.7936 131.321 63.0211 132.779 63.0204Z" fill="#CCCCCC"/>
<path id="Vector_12" d="M332.359 141.673C333.294 141.672 334.051 140.885 334.05 139.914C334.05 138.943 333.292 138.156 332.357 138.156C331.423 138.157 330.665 138.944 330.666 139.915C330.666 140.886 331.424 141.673 332.359 141.673Z" fill="#CCCCCC"/>
<path id="Vector_13" d="M3.1594 148.728C4.32261 148.727 5.26511 147.747 5.26454 146.538C5.26397 145.33 4.32054 144.35 3.15734 144.351C1.99413 144.352 1.05163 145.332 1.0522 146.54C1.05277 147.749 1.99619 148.728 3.1594 148.728Z" fill="#CCCCCC"/>
<path id="Vector_14" d="M35.1393 112.88C36.399 112.88 37.4197 111.818 37.4191 110.509C37.4184 109.2 36.3968 108.14 35.1371 108.14C33.8774 108.141 32.8567 109.203 32.8573 110.511C32.858 111.82 33.8796 112.881 35.1393 112.88Z" fill="#CCCCCC"/>
<path id="Vector_15" d="M181.539 4.76687L177.038 4.76899L177.036 0.0925286L174.621 0.0936687L174.623 4.77013L170.12 4.77226L170.121 7.28361L174.624 7.28149L174.627 11.9579L177.041 11.9568L177.039 7.28035L181.54 7.27822L181.539 4.76687Z" fill="#CCCCCC"/>
<path id="Vector_16" d="M286.068 257.772L283.242 257.773L283.24 254.837L281.724 254.838L281.726 257.774L278.9 257.775L278.9 259.351L281.727 259.349L281.728 262.286L283.244 262.285L283.242 259.349L286.069 259.347L286.068 257.772Z" fill="#CCCCCC"/>
<path id="Vector_17" d="M351.294 242.71L349.182 242.711L349.181 240.516L348.046 240.517L348.047 242.712L345.934 242.713L345.935 243.892L348.048 243.891L348.049 246.086L349.183 246.085L349.182 243.89L351.295 243.889L351.294 242.71Z" fill="#CCCCCC"/>
<path id="Vector_18" opacity="0.1" d="M148.905 144.596C153.249 144.594 156.768 140.934 156.766 136.421C156.764 131.907 153.241 128.25 148.897 128.252C144.554 128.254 141.034 131.915 141.036 136.428C141.038 140.941 144.561 144.598 148.905 144.596Z" fill="black"/>
<path id="Vector_19" opacity="0.1" d="M235.816 226.646C240.16 226.644 243.679 222.983 243.677 218.47C243.675 213.957 240.152 210.3 235.808 210.302C231.464 210.304 227.945 213.964 227.947 218.477C227.949 222.991 231.472 226.648 235.816 226.646Z" fill="black"/>
<path id="Vector_20" opacity="0.1" d="M209.328 157.197C213.672 157.195 217.191 153.535 217.189 149.021C217.187 144.508 213.664 140.851 209.32 140.853C204.977 140.855 201.457 144.516 201.459 149.029C201.461 153.542 204.984 157.199 209.328 157.197Z" fill="black"/>
<path id="Vector_21" opacity="0.1" d="M152.865 202.169C157.208 202.167 160.728 198.507 160.726 193.993C160.724 189.48 157.201 185.823 152.857 185.825C148.513 185.827 144.994 189.488 144.996 194.001C144.998 198.514 148.521 202.171 152.865 202.169Z" fill="black"/>
<path id="Vector_22" opacity="0.1" d="M251.492 113.346C255.836 113.344 259.356 109.683 259.353 105.17C259.351 100.657 255.828 97 251.485 97.002C247.141 97.0041 243.621 100.664 243.623 105.178C243.626 109.691 247.149 113.348 251.492 113.346Z" fill="black"/>
<path id="Vector_23" opacity="0.1" d="M277.616 168.68C281.96 168.678 285.479 165.017 285.477 160.504C285.475 155.991 281.952 152.334 277.608 152.336C273.264 152.338 269.745 155.998 269.747 160.511C269.749 165.025 273.272 168.682 277.616 168.68Z" fill="black"/>
<path id="Vector_24" d="M251.477 81.7726C257.203 81.7699 261.843 76.9449 261.84 70.9956C261.837 65.0464 257.193 60.2257 251.467 60.2284C245.741 60.2311 241.102 65.0562 241.105 71.0054C241.108 76.9546 245.752 81.7753 251.477 81.7726Z" fill="white"/>
<path id="Vector_25" d="M251.465 55.3996C247.578 55.4015 243.85 57.0078 241.103 59.8651C238.355 62.7225 236.813 66.5969 236.815 70.636C236.819 79.047 251.489 106.66 251.489 106.66C251.489 106.66 266.134 79.0331 266.13 70.6221C266.128 66.583 264.582 62.7101 261.831 59.8553C259.081 57.0006 255.352 55.3978 251.465 55.3996ZM251.476 78.0581C250.132 78.0587 248.819 77.6454 247.701 76.8705C246.584 76.0955 245.713 74.9936 245.198 73.7043C244.683 72.4149 244.548 70.9959 244.81 69.6268C245.071 68.2576 245.717 66.9998 246.667 66.0123C247.616 65.0248 248.826 64.3521 250.144 64.0792C251.461 63.8062 252.827 63.9454 254.069 64.4789C255.31 65.0125 256.371 65.9166 257.118 67.0769C257.865 68.2371 258.264 69.6014 258.265 70.9973C258.265 71.9241 258.09 72.8419 257.749 73.6984C257.408 74.5548 256.908 75.3331 256.278 75.9887C255.647 76.6444 254.899 77.1646 254.075 77.5196C253.251 77.8747 252.368 78.0577 251.476 78.0581Z" fill="#6C63FF"/>
<path id="Vector_26" d="M148.848 111.04C154.574 111.037 159.214 106.212 159.211 100.263C159.208 94.3136 154.564 89.493 148.838 89.4957C143.113 89.4984 138.473 94.3234 138.476 100.273C138.479 106.222 143.123 111.043 148.848 111.04Z" fill="white"/>
<path id="Vector_27" d="M148.836 84.6669C144.949 84.6687 141.221 86.275 138.474 89.1324C135.726 91.9897 134.184 95.8641 134.186 99.9032C134.19 108.314 148.86 135.927 148.86 135.927C148.86 135.927 163.505 108.3 163.501 99.8894C163.499 95.8503 161.953 91.9773 159.202 89.1226C156.452 86.2678 152.723 84.665 148.836 84.6669V84.6669ZM148.847 107.325C147.503 107.326 146.19 106.913 145.072 106.138C143.955 105.363 143.084 104.261 142.569 102.972C142.054 101.682 141.919 100.263 142.181 98.894C142.442 97.5249 143.089 96.267 144.038 95.2795C144.987 94.2921 146.197 93.6193 147.515 93.3464C148.832 93.0734 150.198 93.2126 151.44 93.7462C152.681 94.2798 153.742 95.1838 154.489 96.3441C155.236 97.5044 155.635 98.8687 155.636 100.265C155.636 101.191 155.461 102.109 155.12 102.966C154.779 103.822 154.279 104.6 153.649 105.256C153.018 105.912 152.27 106.432 151.446 106.787C150.622 107.142 149.739 107.325 148.847 107.325V107.325Z" fill="#3F3D56"/>
<path id="Vector_28" d="M278.921 135.814C284.647 135.812 289.286 130.987 289.284 125.037C289.281 119.088 284.637 114.268 278.911 114.27C273.185 114.273 268.546 119.098 268.549 125.047C268.552 130.996 273.195 135.817 278.921 135.814Z" fill="white"/>
<path id="Vector_29" d="M278.909 109.441C275.021 109.443 271.294 111.05 268.547 113.907C265.799 116.764 264.257 120.639 264.259 124.678C264.263 133.089 278.933 160.702 278.933 160.702C278.933 160.702 293.577 133.075 293.573 124.664C293.571 120.625 292.025 116.752 289.275 113.897C286.525 111.042 282.796 109.44 278.909 109.441V109.441ZM278.919 132.1C277.576 132.1 276.263 131.687 275.145 130.912C274.028 130.137 273.157 129.035 272.642 127.746C272.127 126.457 271.992 125.038 272.254 123.669C272.515 122.299 273.161 121.042 274.111 120.054C275.06 119.067 276.27 118.394 277.588 118.121C278.905 117.848 280.271 117.987 281.512 118.521C282.754 119.054 283.815 119.958 284.562 121.119C285.309 122.279 285.708 123.643 285.709 125.039C285.709 125.966 285.534 126.884 285.193 127.74C284.852 128.597 284.352 129.375 283.722 130.03C283.091 130.686 282.343 131.206 281.519 131.561C280.695 131.916 279.811 132.099 278.919 132.1Z" fill="#CCCCCC"/>
<path id="Vector_30" d="M103.189 189.952C108.914 189.949 113.554 185.124 113.551 179.175C113.548 173.226 108.904 168.405 103.178 168.408C97.4527 168.411 92.8133 173.236 92.8161 179.185C92.8189 185.134 97.4628 189.955 103.189 189.952Z" fill="white"/>
<path id="Vector_31" d="M103.176 163.579C99.2887 163.581 95.5613 165.187 92.8139 168.045C90.0664 170.902 88.524 174.776 88.5259 178.815C88.5299 187.226 103.2 214.839 103.2 214.839C103.2 214.839 117.845 187.213 117.841 178.802C117.839 174.763 116.293 170.89 113.543 168.035C110.792 165.18 107.063 163.577 103.176 163.579ZM103.187 186.238C101.843 186.238 100.53 185.825 99.4125 185.05C98.2951 184.275 97.424 183.173 96.9093 181.884C96.3946 180.594 96.2594 179.175 96.5209 177.806C96.7823 176.437 97.4286 175.179 98.3781 174.192C99.3276 173.204 100.538 172.532 101.855 172.259C103.173 171.986 104.538 172.125 105.78 172.658C107.021 173.192 108.082 174.096 108.829 175.256C109.576 176.417 109.975 177.781 109.976 179.177C109.976 180.104 109.801 181.021 109.46 181.878C109.119 182.734 108.619 183.513 107.989 184.168C107.358 184.824 106.61 185.344 105.786 185.699C104.962 186.054 104.079 186.237 103.187 186.238V186.238Z" fill="#6C63FF"/>
<path id="Vector_32" d="M341.861 265.562C343.873 263.811 341.15 256.993 335.78 250.335C330.409 243.676 324.424 239.699 322.413 241.45C320.401 243.202 323.124 250.02 328.495 256.678C333.865 263.336 339.85 267.314 341.861 265.562Z" fill="#2F2E41"/>
<path id="Vector_33" d="M299.945 279.519C316.667 279.511 330.217 265.419 330.208 248.045C330.2 230.67 316.638 216.592 299.916 216.6C283.194 216.608 269.645 230.699 269.653 248.073C269.661 265.448 283.224 279.526 299.945 279.519Z" fill="#2F2E41"/>
<path id="Vector_34" d="M312.758 272.743L303.559 272.747L303.568 289.87L312.766 289.866L312.758 272.743Z" fill="#2F2E41"/>
<path id="Vector_35" d="M294.361 272.751L285.163 272.756L285.171 289.879L294.369 289.875L294.361 272.751Z" fill="#2F2E41"/>
<path id="Vector_36" d="M305.102 293.055C309.335 293.053 312.767 291.715 312.766 290.065C312.765 288.416 309.333 287.08 305.099 287.082C300.866 287.084 297.435 288.423 297.435 290.072C297.436 291.722 300.869 293.057 305.102 293.055Z" fill="#2F2E41"/>
<path id="Vector_37" d="M286.705 292.666C290.939 292.664 294.37 291.325 294.369 289.676C294.368 288.026 290.936 286.691 286.702 286.693C282.469 286.695 279.038 288.033 279.039 289.683C279.039 291.332 282.472 292.668 286.705 292.666Z" fill="#2F2E41"/>
<path id="Vector_38" d="M290.405 208.518C293.103 197.204 305.034 190.541 317.053 193.636C329.072 196.731 336.629 208.412 333.93 219.726C331.232 231.04 322.263 231.081 310.243 227.986C298.224 224.891 287.707 219.832 290.405 208.518Z" fill="#6C63FF"/>
<path id="Vector_39" d="M279.502 240.212C280.626 237.747 275.412 232.734 267.855 229.015C260.299 225.296 253.263 224.279 252.139 226.744C251.016 229.208 256.23 234.221 263.786 237.94C271.343 241.66 278.379 242.677 279.502 240.212Z" fill="#2F2E41"/>
<path id="Vector_40" d="M295.406 251.912C300.981 251.909 305.498 247.211 305.496 241.418C305.493 235.626 300.971 230.932 295.396 230.935C289.821 230.937 285.304 235.635 285.306 241.428C285.309 247.221 289.831 251.914 295.406 251.912Z" fill="white"/>
<path id="Vector_41" d="M291.252 241.162C293.11 241.161 294.616 239.595 294.615 237.664C294.614 235.733 293.107 234.168 291.249 234.169C289.39 234.17 287.884 235.736 287.885 237.667C287.886 239.598 289.394 241.163 291.252 241.162Z" fill="#3F3D56"/>
<path id="Vector_42" d="M301.744 263.272C301.902 264.176 301.888 265.103 301.702 266C301.516 266.898 301.162 267.749 300.659 268.504C300.157 269.259 299.516 269.905 298.773 270.403C298.031 270.901 297.201 271.242 296.332 271.407C295.463 271.571 294.57 271.557 293.706 271.363C292.842 271.17 292.024 270.802 291.297 270.28C290.57 269.757 289.949 269.092 289.469 268.32C288.99 267.549 288.662 266.687 288.503 265.783V265.783L288.501 265.77C287.837 261.97 290.664 260.624 294.321 259.934C297.978 259.245 301.08 259.473 301.744 263.272Z" fill="white"/>
<path id="Vector_43" d="M237.543 181.256C234.428 178.527 230.616 176.798 226.572 176.279C222.528 175.76 218.426 176.473 214.766 178.332C211.105 180.191 208.043 183.115 205.953 186.75C203.863 190.384 202.834 194.571 202.992 198.801C203.151 203.032 204.489 207.123 206.845 210.578C209.2 214.033 212.471 216.701 216.26 218.26C220.049 219.818 224.191 220.199 228.184 219.355C232.177 218.512 235.848 216.481 238.75 213.509L264.544 236.101C264.936 236.445 265.444 236.613 265.956 236.568C266.467 236.523 266.941 236.269 267.272 235.861C267.603 235.454 267.765 234.926 267.722 234.395C267.679 233.863 267.435 233.371 267.043 233.026L267.04 233.024L241.247 210.432C244.24 205.964 245.519 200.495 244.834 195.098C244.149 189.701 241.549 184.765 237.543 181.256V181.256ZM235.894 208.257C233.886 210.732 231.218 212.532 228.226 213.43C225.234 214.329 222.052 214.285 219.084 213.305C216.116 212.325 213.494 210.452 211.55 207.923C209.606 205.395 208.427 202.324 208.162 199.1C207.898 195.875 208.56 192.642 210.064 189.808C211.568 186.974 213.847 184.668 216.613 183.18C219.379 181.693 222.508 181.09 225.603 181.45C228.698 181.81 231.622 183.115 234.003 185.201V185.201C237.196 187.998 239.19 191.999 239.544 196.322C239.899 200.646 238.586 204.939 235.894 208.257V208.257Z" fill="#3F3D56"/>
<path id="Vector_44" opacity="0.3" d="M213.704 210.221C210.681 207.574 208.728 203.842 208.231 199.768C207.734 195.693 208.73 191.573 211.021 188.226C210.72 188.541 210.429 188.871 210.148 189.216C208.815 190.859 207.807 192.759 207.181 194.807C206.554 196.854 206.322 199.01 206.498 201.151C206.673 203.292 207.253 205.376 208.204 207.285C209.155 209.193 210.458 210.888 212.039 212.273C213.62 213.658 215.449 214.706 217.419 215.356C219.39 216.007 221.465 216.248 223.526 216.066C225.586 215.884 227.592 215.281 229.429 214.294C231.265 213.306 232.897 211.952 234.229 210.309C234.51 209.964 234.774 209.61 235.021 209.248C232.234 212.16 228.495 213.877 224.545 214.057C220.596 214.238 216.726 212.868 213.704 210.221V210.221Z" fill="black"/>
<path id="Vector_45" d="M105.127 226.158C108.108 218.042 108.537 210.674 106.085 209.701C103.633 208.729 99.2281 214.52 96.2468 222.636C93.2655 230.752 92.8366 238.12 95.2889 239.092C97.7411 240.065 102.146 234.274 105.127 226.158Z" fill="#2F2E41"/>
<path id="Vector_46" d="M72.7273 279.626C89.4492 279.618 102.998 265.527 102.99 248.152C102.982 230.778 89.4195 216.699 72.6976 216.707C55.9756 216.715 42.4265 230.806 42.4347 248.181C42.4429 265.555 56.0053 279.634 72.7273 279.626Z" fill="#2F2E41"/>
<path id="Vector_47" d="M68.1249 272.858L58.9266 272.862L58.9347 289.986L68.133 289.982L68.1249 272.858Z" fill="#2F2E41"/>
<path id="Vector_48" d="M86.5215 272.849L77.3232 272.854L77.3313 289.977L86.5296 289.973L86.5215 272.849Z" fill="#2F2E41"/>
<path id="Vector_49" d="M66.6015 293.168C70.8349 293.166 74.2661 291.827 74.2654 290.178C74.2646 288.528 70.8321 287.193 66.5987 287.195C62.3653 287.197 58.934 288.536 58.9348 290.185C58.9356 291.835 62.3681 293.17 66.6015 293.168Z" fill="#2F2E41"/>
<path id="Vector_50" d="M84.9979 292.761C89.2313 292.759 92.6625 291.42 92.6617 289.771C92.661 288.121 89.2285 286.786 84.9951 286.788C80.7617 286.79 77.3304 288.129 77.3312 289.778C77.332 291.428 80.7645 292.763 84.9979 292.761Z" fill="#2F2E41"/>
<path id="Vector_51" d="M73.4803 250.953C79.1954 250.951 83.8261 246.135 83.8233 240.197C83.8205 234.259 79.1852 229.447 73.4701 229.45C67.755 229.452 63.1243 234.268 63.1271 240.206C63.1299 246.145 67.7652 250.956 73.4803 250.953Z" fill="white"/>
<path id="Vector_52" d="M73.4769 243.786C75.3819 243.785 76.9255 242.179 76.9246 240.2C76.9237 238.221 75.3786 236.617 73.4735 236.618C71.5685 236.618 70.0249 238.224 70.0258 240.203C70.0268 242.183 71.5719 243.786 73.4769 243.786Z" fill="#3F3D56"/>
<path id="Vector_53" d="M43.3282 218.924C40.8781 207.549 48.6876 196.05 60.7714 193.241C72.8552 190.431 84.6372 197.375 87.0874 208.75C89.5376 220.125 81.5303 224.324 69.4465 227.134C57.3628 229.943 45.7784 230.299 43.3282 218.924Z" fill="#6C63FF"/>
<path id="Vector_54" d="M52.2843 240.319C53.4079 237.855 48.1934 232.842 40.6372 229.123C33.0811 225.403 26.0448 224.386 24.9211 226.851C23.7975 229.316 29.0121 234.329 36.5682 238.048C44.1244 241.767 51.1607 242.784 52.2843 240.319Z" fill="#2F2E41"/>
<path id="Vector_55" d="M57.8455 259.523C57.8469 262.602 65.48 268.678 73.9468 268.674C82.4137 268.67 90.3481 259.998 90.3466 256.919C90.3452 253.84 82.4083 257.52 73.9416 257.524C65.4748 257.528 57.844 256.444 57.8455 259.523Z" fill="white"/>
<path id="Vector_56" d="M170.981 336.556C187.703 336.548 201.252 322.457 201.244 305.082C201.236 287.708 187.674 273.629 170.952 273.637C154.23 273.645 140.681 287.736 140.689 305.111C140.697 322.485 154.259 336.564 170.981 336.556Z" fill="#2F2E41"/>
<path id="Vector_57" d="M166.379 329.788L157.181 329.793L157.189 346.916L166.387 346.912L166.379 329.788Z" fill="#2F2E41"/>
<path id="Vector_58" d="M184.776 329.78L175.577 329.784L175.585 346.907L184.784 346.903L184.776 329.78Z" fill="#2F2E41"/>
<path id="Vector_59" d="M164.856 350.098C169.089 350.096 172.52 348.757 172.519 347.108C172.519 345.459 169.086 344.123 164.853 344.125C160.619 344.127 157.188 345.466 157.189 347.115C157.19 348.765 160.622 350.1 164.856 350.098Z" fill="#2F2E41"/>
<path id="Vector_60" d="M183.252 349.691C187.485 349.689 190.917 348.351 190.916 346.701C190.915 345.052 187.483 343.716 183.249 343.718C179.016 343.72 175.585 345.059 175.585 346.708C175.586 348.358 179.019 349.693 183.252 349.691Z" fill="#2F2E41"/>
<path id="Vector_61" d="M141.582 275.854C139.132 264.479 146.942 252.98 159.026 250.171C171.109 247.361 182.891 254.305 185.341 265.68C187.792 277.055 179.784 281.255 167.701 284.064C155.617 286.874 144.032 287.229 141.582 275.854Z" fill="#3F3D56"/>
<path id="Vector_62" d="M171.085 299.645C171.085 299.645 173.277 289.603 169.104 290.062C164.931 290.52 159.221 290.751 157.684 290.752C156.146 290.752 147.36 289.615 146.045 295.549C144.73 301.483 142.976 308.787 146.712 313.349C146.712 313.349 148.04 333.431 153.092 334.798C158.144 336.165 171.543 337.756 176.372 331.135C177.785 329.166 178.772 326.902 179.264 324.499C179.756 322.096 179.741 319.61 179.22 317.213L177.024 317.214L171.085 299.645Z" fill="#6C63FF"/>
<path id="Vector_63" opacity="0.1" d="M148.91 314.946C148.91 314.946 152.644 316.77 160.331 315.625L160.333 319.048L148.911 318.141L148.91 314.946Z" fill="black"/>
<path id="Vector_64" d="M176.819 326.375L174.332 325.011L185.38 303.263C185.795 302.446 186.002 301.533 185.983 300.61C185.964 299.687 185.718 298.784 185.269 297.988C184.821 297.191 184.184 296.526 183.419 296.056C182.654 295.586 181.786 295.327 180.898 295.302L169.293 294.983L169.367 292.062L180.972 292.381C182.339 292.419 183.673 292.818 184.85 293.541C186.026 294.264 187.006 295.286 187.696 296.512C188.387 297.738 188.765 299.127 188.795 300.547C188.824 301.966 188.505 303.371 187.867 304.627L176.819 326.375Z" fill="#6C63FF"/>
<path id="Vector_65" d="M150.091 326.387L139.023 304.65C138.383 303.394 138.063 301.99 138.091 300.57C138.12 299.151 138.496 297.762 139.186 296.535C139.875 295.309 140.853 294.285 142.029 293.561C143.205 292.837 144.539 292.437 145.906 292.398L157.511 292.068L157.588 294.989L145.983 295.319C145.095 295.344 144.227 295.604 143.463 296.075C142.698 296.545 142.062 297.211 141.614 298.008C141.166 298.806 140.921 299.708 140.903 300.631C140.884 301.554 141.093 302.467 141.508 303.283L152.577 325.021L150.091 326.387Z" fill="#6C63FF"/>
<path id="Vector_66" d="M209.794 313.15C211.155 310.475 205.608 304.656 197.406 300.153C189.204 295.649 181.451 294.168 180.091 296.843C178.73 299.518 184.277 305.338 192.479 309.841C200.681 314.344 208.434 315.826 209.794 313.15Z" fill="#2F2E41"/>
</g>
<defs>
<clipPath id="clip0">
<rect width="372.017" height="350" fill="white" transform="translate(0.983093 0.175644) rotate(-0.0270508)"/>
</clipPath>
</defs>
</svg>
